<svg xmlns="http://www.w3.org/2000/svg" viewBox="0 0 27 27"><path d="M1 1h7v7h-7zM9 1h3v1h-1v1h-1v-1h-1zM15 1h3v5h-2v2h1v-1h1v2h-1v1h1v3h-1v-1h-3v1h-1v-1h-1v-1h1v-1h1v1h1v-1h1v-1h-1v-6h2v-1h-2zM19 1h7v7h-7zM2 2v5h5v-5zM12 2h3v1h-1v1h-3v-1h1zM20 2v5h5v-5zM3 3h3v3h-3zM21 3h3v3h-3zM9 4h1v2h1v-1h2v1h1v3h-1v1h-1v-1h-1v1h-4v-1h2zM10 7v1h1v-1zM12 7v1h1v-1zM1 9h1v1h-1zM5 9h1v2h-3v-1h2zM14 9h1v1h-1zM18 9h5v2h1v6h1v-1h1v2h-3v1h-1v3h-1v2h-1v-1h-2v-1h-1v-3h-1v-1h1v-1h2v-2h2v-1h1v1h1v-3h-1v1h-1v1h-2v-1h1v-1h-1v-1h2v-1h-3zM25 9h1v1h-1zM24 10h1v1h-1zM2 11h1v1h-1zM6 11h2v1h-1v1h-2v-1h1zM9 11h2v1h-1v1h1v1h-2v-1h-1v-1h1zM1 12h1v1h-1zM3 13h2v3h-2v-1h-2v-1h2zM7 13h1v1h-1zM12 13h1v1h-1zM14 13h1v1h-1zM8 14h1v3h1v-2h1v1h1v-1h1v-1h1v2h-1v1h-2v1h-1v1h1v1h-2v-2h-4v-1h1v-2h2zM15 14h3v1h-1v2h-2v-1h1v-1h-1zM7 16v1h1v-1zM20 16v1h3v-1zM1 17h3v1h-3zM13 17h2v2h-1v-1h-1zM11 18h1v1h-1zM18 18v3h3v-3zM1 19h7v7h-7zM15 19h1v1h-1zM19 19h1v1h-1zM23 19h1v1h2v3h-1v2h1v1h-3v-1h-2v-1h1v-1h1v1h1v-2h-1zM2 20v5h5v-5zM13 20h1v1h-1zM3 21h3v3h-3zM9 21h1v1h-1zM11 21h2v1h-2zM14 21h2v2h1v3h-1v-2h-1v2h-2v-1h1v-1h-1v1h-2v-1h-1v-2h1v1h2v-1h1v1h1v-1h-1zM18 24h1v2h-1zM9 25h2v1h-2z"/></svg>